{"title":"Righteous Kill (DVD-rip Xvid, NL Sub, DTS-5.1)BG-X","uid":6643443,"size":1182006796,"categoryP":"video","categoryS":"movies","magnet":"?xt=urn:btih:352896b44d59a37f80c3dfd35172b2f691fa98c0&amp;dn=Righteous+Kill+%28DVD-rip+Xvid%2C+NL+Sub%2C+DTS-5.1%29BG-X&amp;tr=udp%3A%2F%2Ftracker.openbittorrent.com%3A80&amp;tr=udp%3A%2F%2Fopen.demonii.com%3A1337&amp;tr=udp%3A%2F%2Ftracker.coppersurfer.tk%3A6969&amp;tr=udp%3A%2F%2Fexodus.desync.com%3A6969","seeders":0,"leechers":1,"uploader":"BG-X","files":5,"time":1314842085,"description":"RIGHTEOUS_KILL\\RIGHTEOUS_KILL.avi\nFormat                           : AVI\nFormat/Info                      : Audio Video Interleave\nFile size                        : 1.10 GiB\nDuration                         : 1h 36mn\nOverall bit rate                 : 1 630 Kbps\nWriting application              : VirtualDubMod 1.5.4.1 (build 2178/release)\nWriting library                  : VirtualDubMod build 2178/release\n\nVideo\nID                               : 0\nFormat                           : MPEG-4 Visual\nFormat profile                   : Advanced Simple@L5\nFormat settings, BVOP            : 1\nFormat settings, QPel            : No\nFormat settings, GMC             : No warppoints\nFormat settings, Matrix          : Default (H.263)\nMuxing mode                      : Packed bitstream\nCodec ID                         : XVID\nCodec ID/Hint                    : XviD\nDuration                         : 1h 36mn\nBit rate                         : 868 Kbps\nWidth                            : 720 pixels\nHeight                           : 304 pixels\nDisplay aspect ratio             : 2.35:1\nFrame rate                       : 25.000 fps\nColor space                      : YUV\nChroma subsampling               : 4:2:0\nBit depth                        : 8 bits\nScan type                        : Progressive\nCompression mode                 : Lossy\nBits/(Pixel*Frame)               : 0.159\nStream size                      : 600 MiB (53%)\nWriting library                  : XviD 1.2.1 (UTC 2008-12-04)\n\nAudio\nID                               : 1\nFormat                           : DTS\nFormat/Info                      : Digital Theater Systems\nCodec ID                         : 2001\nCodec ID/Info                    : Digital Theater Systems\nDuration                         : 1h 36mn\nBit rate mode                    : Constant\nBit rate                         : 755 Kbps\nChannel(s)                       : 6 channels\nChannel positions                : Front: L C R, Side: L R, LFE\nSampling rate                    : 48.0 KHz\nBit depth                        : 24 bits\nCompression mode                 : Lossy\nStream size                      : 522 MiB (46%)\nAlignment                        : Split accross interleaves\nInterleave, duration             : 80 ms (2.00 video frames)\nInterleave, preload duration     : 500 ms\nLanguage                         : English","torrent":{"xt":"urn:btih:352896b44d59a37f80c3dfd35172b2f691fa98c0","amp;dn":"Righteous+Kill+%28DVD-rip+Xvid%2C+NL+Sub%2C+DTS-5.1%29BG-X","amp;tr":["udp%3A%2F%2Ftracker.openbittorrent.com%3A80","udp%3A%2F%2Fopen.demonii.com%3A1337","udp%3A%2F%2Ftracker.coppersurfer.tk%3A6969","udp%3A%2F%2Fexodus.desync.com%3A6969"],"infoHash":"352896b44d59a37f80c3dfd35172b2f691fa98c0","infoHashBuffer":{"type":"Buffer","data":[53,40,150,180,77,89,163,127,128,195,223,211,81,114,178,246,145,250,152,192]},"announce":[],"urlList":[]}}